<?xml version="1.0" encoding="UTF-8"?>
<svg version="1.1" viewBox="0 0 380 380" xmlns="http://www.w3.org/2000/svg" xmlns:cc="http://creativecommons.org/ns#" xmlns:dc="http://purl.org/dc/elements/1.1/" xmlns:rdf="http://www.w3.org/1999/02/22-rdf-syntax-ns#">
<g class="" transform="rotate(30.201 136.76 217.67)">
<path d="m134.51 12.291c-1.6 0-3.4 0.7-6 2.2l-2 1.1h-2.3c-38.05 0-78.77 16.3-109.11 68.8-2.93 24.6 3.45 35 11.59 48.5 7.41 12.4 16.35 27.4 16.85 51.8 22.72-0.4 52.37-3.6 82.27-31.7l-20.7-115 71.7 67.2c4.2-5.1 8.6-8.8 11.9-11.7s5.5-5 7-8c-19.1-12.4-30-34.4-40.1-50.8-5.6-9.1-11-16.5-15.2-19.7-2.2-1.6-3.6-2.6-5.3-2.7zm-2.4 75.3 12.9 71.6-3.3 3.3c-19.2 19.2-39.2 29.1-57.47 34.3l49.27 71.6 28.1 56c10.1 4.6 27.7 3.5 48.4-1.5l-3.6-35.8 33.3 26.6c59.1-21.7 126.1-65.4 123.7-101.4-24.3-51.9-86.9-103.8-139.1-51.9-14.2 16.5-22.3 34.9-30.5 67.4 1.7-32.8 1.9-51.3 12-67.9l-17-41.2c-0.9 1.2-1.7 2.6-2.5 4.2l-5.3 10.6z" fill="#dbcda5"/>
</g>
</svg>
