<?xml version="1.0" encoding="UTF-8" standalone="no"?>
<svg
   xmlns:dc="http://purl.org/dc/elements/1.1/"
   xmlns:cc="http://creativecommons.org/ns#"
   xmlns:rdf="http://www.w3.org/1999/02/22-rdf-syntax-ns#"
   xmlns:svg="http://www.w3.org/2000/svg"
   xmlns="http://www.w3.org/2000/svg"
   xmlns:sodipodi="http://sodipodi.sourceforge.net/DTD/sodipodi-0.dtd"
   xmlns:inkscape="http://www.inkscape.org/namespaces/inkscape"
   height="380"
   width="380"
   inkscape:version="1.0 (4035a4fb49, 2020-05-01)"
   sodipodi:docname="boot.svg"
   id="svg6"
   version="1.1"
   viewBox="0 0 380 380">
  <metadata
     id="metadata12">
    <rdf:RDF>
      <cc:Work
         rdf:about="">
        <dc:format>image/svg+xml</dc:format>
        <dc:type
           rdf:resource="http://purl.org/dc/dcmitype/StillImage" />
        <dc:title></dc:title>
      </cc:Work>
    </rdf:RDF>
  </metadata>
  <defs
     id="defs10" />
  <sodipodi:namedview
     inkscape:current-layer="svg6"
     inkscape:window-maximized="0"
     inkscape:window-y="34"
     inkscape:window-x="10"
     inkscape:cy="877.10684"
     inkscape:cx="-66.463601"
     inkscape:zoom="0.4506579"
     showgrid="false"
     id="namedview8"
     inkscape:window-height="1036"
     inkscape:window-width="1900"
     inkscape:pageshadow="2"
     inkscape:pageopacity="0"
     guidetolerance="10"
     gridtolerance="10"
     objecttolerance="10"
     borderopacity="1"
     bordercolor="#666666"
     pagecolor="#ffffff" />
  <g
     transform="rotate(30.201253,136.75927,217.67244)"
     id="g4"
     class="">
    <path
       sodipodi:nodetypes="sccsccccccsccccsccscccccccccccscc"
       id="path2"
       fill-opacity="1"
       fill="#dbcda5"
       d="m 134.51194,12.291398 c -1.6,0 -3.4,0.7 -6,2.2 l -2,1.1 h -2.3 c -38.050004,0 -78.770004,16.3 -109.110004,68.8 -2.93,24.600002 3.45,35.000002 11.59,48.500002 7.41,12.4 16.35,27.4 16.85,51.8 22.72,-0.4 52.37,-3.6 82.270004,-31.7 l -20.7,-115.000002 71.7,67.200002 c 4.2,-5.1 8.6,-8.800002 11.9,-11.700002 3.3,-2.9 5.5,-5 7,-8 -19.1,-12.4 -30,-34.4 -40.1,-50.8 -5.6,-9.1 -11,-16.5 -15.2,-19.7 -2.2,-1.6 -3.6,-2.6 -5.3,-2.7 z m -2.4,75.3 12.9,71.600002 -3.3,3.3 c -19.2,19.2 -39.2,29.1 -57.470004,34.3 l 49.270004,71.6 28.1,56 c 10.1,4.6 27.7,3.5 48.4,-1.5 l -3.6,-35.8 33.3,26.6 c 59.1,-21.7 126.1,-65.4 123.7,-101.4 -24.3,-51.9 -86.9,-103.8 -139.1,-51.9 -14.2,16.5 -22.3,34.9 -30.5,67.4 1.7,-32.8 1.9,-51.3 12,-67.9 l -17,-41.2 c -0.9,1.2 -1.7,2.6 -2.5,4.2 l -5.3,10.6 z" />
  </g>
</svg>
