<?xml version="1.0" encoding="UTF-8" standalone="no"?>
<svg
   xmlns:dc="http://purl.org/dc/elements/1.1/"
   xmlns:cc="http://creativecommons.org/ns#"
   xmlns:rdf="http://www.w3.org/1999/02/22-rdf-syntax-ns#"
   xmlns:svg="http://www.w3.org/2000/svg"
   xmlns="http://www.w3.org/2000/svg"
   xmlns:sodipodi="http://sodipodi.sourceforge.net/DTD/sodipodi-0.dtd"
   xmlns:inkscape="http://www.inkscape.org/namespaces/inkscape"
   inkscape:version="1.0 (4035a4fb49, 2020-05-01)"
   sodipodi:docname="cat.svg"
   id="svg6"
   height="28px"
   width="28px"
   xml:space="preserve"
   style="enable-background:new 0 0 494 494;"
   viewBox="0 0 494 494"
   y="0px"
   x="0px"
   version="1.1"><metadata
   id="metadata12"><rdf:RDF><cc:Work
       rdf:about=""><dc:format>image/svg+xml</dc:format><dc:type
         rdf:resource="http://purl.org/dc/dcmitype/StillImage" /></cc:Work></rdf:RDF></metadata><defs
   id="defs10" /><sodipodi:namedview
   inkscape:current-layer="svg6"
   inkscape:window-maximized="0"
   inkscape:window-y="34"
   inkscape:window-x="10"
   inkscape:cy="10.554468"
   inkscape:cx="14"
   inkscape:zoom="48.928571"
   showgrid="false"
   id="namedview8"
   inkscape:window-height="1036"
   inkscape:window-width="1900"
   inkscape:pageshadow="2"
   inkscape:pageopacity="0"
   guidetolerance="10"
   gridtolerance="10"
   objecttolerance="10"
   borderopacity="1"
   bordercolor="#666666"
   pagecolor="#ffffff" />
<g
   id="g4"
   fill="#dbcda5">
<path
   sodipodi:nodetypes="cssscscscccssccccccscccsccccscccssccsccccsccccccc"
   id="path2"
   d="m 465.5,168.4 c -21.3,-32 -49.1,-48 -83.4,-48 -32.4,0 -48.5,8 -48.5,24 0,12.2 5.9,18.3 17.7,18.3 3.4,0 8.5,-1 15.1,-3.2 6.7,-2.1 11.9,-3.1 15.7,-3.1 23.6,0 42.6,12.6 57.1,37.7 12.2,20.9 18.3,44.3 18.3,70.2 0,37.3 -12.7,69.4 -38,96.2 -25.3,26.9 -56.6,40.3 -93.9,40.3 l -2.9,0.1 c 3,-8.7 5.9,-18.4 8.6,-27.7 2.7,-9.3 4,-18 4,-26 0,-25.9 -3.5,-55.2 -16.4,-88 -14.8,-36.2 -53.4,-77.6 -113.2,-82.8 -24.8,-2.7 -37.1,-4.4 -40.5,-14.3 -6.5,-17.9 -22.6,-32.6 -37.3,-35.7 -2,-0.7 -18.8,-1.3 -17.1,-24.3 2.9,-39.9 -6.1,-57.8 -6.1,-57.8 0,0 -26.5,36.9 -50.8,36.9 -4,0 -8.1,-0.8 -12.2,-2.1 C 20.8,72.6 0,52.4 0,52.4 c 0,7.2 3.6,24.2 10.9,50.8 -5.3,12.2 -8,21.9 -8,29.1 0,9.9 6.3,23 18.8,39.1 12.6,16.2 21.9,27.7 15.4,60.8 -3,15.3 6.7,28.2 20,43.4 11.4,12.2 22.7,24.2 33.7,36 4.2,5.7 6.3,15.6 6.3,29.7 0,5.3 -0.8,15.4 -2.3,30.3 -1.9,16.4 -3.6,25.5 -5.1,27.4 -4.2,2.3 -8.6,4.8 -13.1,7.4 -6.9,4.2 -10.3,9.1 -10.3,14.8 0,6.5 6.5,9.7 19.4,9.7 17.1,0 28.6,-3.6 34.3,-10.9 4.6,-4.9 8.6,-16.4 12,-34.3 2.7,33.1 16.2,64 98.2,64 8.8,0 22.5,-0.1 39.2,-4.5 16.8,-4.4 28.6,-8.4 37.3,-8.1 H 317 c 50.3,1.5 92.3,-14.5 126.2,-48 33.8,-33.2 50.8,-74.9 50.8,-124.8 0,-36.2 -9.5,-68.2 -28.5,-95.9 z M 62.9,138.5 c -3.8,0 -8.5,-1.1 -12.7,-3.8 19.604682,-13.94918 29.355444,-10.07632 12.7,3.8 z m -24.5,-3.9 c -4.2,2.7 -8.8,3.8 -12.7,3.8 -18.0590734,-20.23837 4.84439,-13.16027 12.7,-3.8 z" />
</g>
</svg>
