<?xml version="1.0" encoding="iso-8859-1"?>
<svg version="1.1" xmlns="http://www.w3.org/2000/svg" xmlns:xlink="http://www.w3.org/1999/xlink" x="0px" y="0px"
width="20" height="20" viewBox="0 0 512 512" style="enable-background:new 0 0 512 512;" xml:space="preserve">
<g fill="#dbcda5">
<path d="M106,0H15C6.709,0,0,6.709,0,15v91c0,8.291,6.709,15,15,15s15-6.709,15-15V30h76c8.291,0,15-6.709,15-15S114.291,0,106,0z "/>
<path d="M497,0h-91c-8.291,0-15,6.709-15,15s6.709,15,15,15h76v76c0,8.291,6.709,15,15,15c8.291,0,15-6.709,15-15V15 C512,6.709,505.291,0,497,0z"/>
<path d="M106,482H30v-76c0-8.291-6.709-15-15-15s-15,6.709-15,15v91c0,8.291,6.709,15,15,15h91c8.291,0,15-6.709,15-15 C121,488.709,114.291,482,106,482z"/>
<path d="M497,391c-8.291,0-15,6.709-15,15v76h-76c-8.291,0-15,6.709-15,15c0,8.291,6.709,15,15,15h91c8.291,0,15-6.709,15-15v-91 C512,397.709,505.291,391,497,391z"/>
<path d="M241,406v-46.516c-45.807-6.641-81.843-42.676-88.484-88.484H106c-8.291,0-15-6.709-15-15c0-8.291,6.709-15,15-15h46.516
c6.641-45.807,42.676-81.843,88.484-88.484V106c0-8.291,6.709-15,15-15C117.338,91,7.383,240.883,2.813,247.27
c-3.75,5.215-3.75,12.246,0,17.461C7.383,271.117,117.338,421,256,421C247.709,421,241,414.291,241,406z"/>
<path d="M256,241c-8.276,0-15,6.724-15,15s6.724,15,15,15s15-6.724,15-15S264.276,241,256,241z"/>
<path d="M256,181c-41.353,0-75,33.647-75,75c0,41.353,33.647,75,75,75c41.353,0,75-33.647,75-75C331,214.647,297.353,181,256,181z
M256,301c-24.814,0-45-20.186-45-45c0-24.814,20.186-45,45-45c24.814,0,45,20.186,45,45C301,280.814,280.814,301,256,301z"/>
<path d="M509.188,247.269C504.617,240.883,394.662,91,256,91c8.291,0,15,6.709,15,15v46.516
c45.807,6.641,81.843,42.676,88.484,88.484H406c8.291,0,15,6.709,15,15s-6.709,15-15,15h-46.516
c-6.641,45.807-42.676,81.843-88.484,88.484V406c0,8.291-6.709,15-15,15c138.662,0,248.617-149.883,253.188-156.27
C512.938,259.515,512.938,252.484,509.188,247.269z"/>
</g>
</svg>
