<?xml version="1.0" encoding="iso-8859-1"?>
<svg version="1.1" xmlns="http://www.w3.org/2000/svg" xmlns:xlink="http://www.w3.org/1999/xlink" x="0px" y="0px"
viewBox="0 0 512 512" style="enable-background:new 0 0 512 512;" xml:space="preserve" width="28px" height="28px">
<g fill="#dbcda5">
<path d="M508.874,274.581c-0.166-0.351-20.762-38.86-62.524-76.926c-17.479-15.933-36.152-29.522-55.731-40.611
c10.006,20.111,15.646,42.761,15.646,66.708c0,82.856-67.408,150.265-150.265,150.265s-150.265-67.409-150.265-150.265
c0-23.946,5.64-46.596,15.646-66.708c-19.579,11.089-38.252,24.678-55.731,40.611C23.888,235.722,3.292,274.23,3.126,274.581
L0,281.181l3.266,6.532c0.182,0.363,20.764,38.702,62.384,76.638c24.178,22.039,50.631,39.621,78.622,52.257
c35.14,15.862,72.73,23.905,111.727,23.905s76.587-8.043,111.727-23.905c27.991-12.636,54.445-30.216,78.622-52.257
c41.62-37.936,62.202-76.275,62.384-76.638l3.266-6.532L508.874,274.581z"/>
<path d="M480.039,160.698c-64.029-58.362-141.5-89.211-224.037-89.211S95.993,102.335,31.965,160.698
c-9.798,8.931-19.276,18.503-28.171,28.449l22.366,20c8.217-9.188,16.97-18.029,26.017-26.275
c28.042-25.561,58.873-45.318,91.637-58.972c35.48-14.784,73.23-22.409,112.188-22.409c38.957,0,76.703,7.624,112.182,22.407
c32.767,13.653,63.599,33.412,91.643,58.974c9.041,8.242,17.794,17.081,26.014,26.272l22.364-20.002
C499.308,179.193,489.832,169.624,480.039,160.698z"/>
<path d="M256,121.494c-56.385,0-102.258,45.873-102.258,102.258c0,56.385,45.873,102.258,102.258,102.258
s102.258-45.873,102.258-102.258C358.258,167.367,312.385,121.494,256,121.494z M288.248,223.752
c0-17.782-14.466-32.248-32.248-32.248V161.5c34.326,0,62.252,27.926,62.252,62.252H288.248z"/>
</g>
</svg>
