<?xml version="1.0" encoding="iso-8859-1"?>
<svg version="1.1" xmlns="http://www.w3.org/2000/svg" xmlns:xlink="http://www.w3.org/1999/xlink" x="0px" y="0px"
viewBox="0 0 511.999 511.999" style="enable-background:new 0 0 511.999 511.999;" xml:space="preserve" width="28" height="28">
<g fill="#dbcda5">
<path d="M467.622,65.067C409.441,6.886,315.381,5.913,256,62.148C196.617,5.912,102.56,6.886,44.378,65.067
c-59.17,59.171-59.17,155.451,0,214.621L256,491.311l211.622-211.623C526.792,220.517,526.792,124.238,467.622,65.067z
M69.997,172.378h-30.01c0-29.879,11.608-57.941,32.685-79.018c21.105-21.106,49.167-32.73,79.016-32.73v30.01
c-21.833,0-42.359,8.502-57.796,23.94C78.483,129.989,69.997,150.516,69.997,172.378z M373.603,288.285h-70.927v70.927h-93.351
v-70.927h-70.927v-93.351h70.927v-70.927h93.351v70.927h70.927V288.285z"/>
</g>
</svg>
