<svg viewBox="0 0 52 56" width="28" height="28" xmlns="http://www.w3.org/2000/svg">
<g fill="none" fill-rule="evenodd">
<g fill="#dbcda5" fill-rule="nonzero">
<path d="m32.077 43.765c-2.4261437-1.0402114-4.5259004-2.7170452-6.077-4.853-1.5514583 2.1362561-3.6515253 3.8134073-6.078 4.854-2.5161915 1.0187391-5.1516294 1.7136372-7.843 2.068-.1811882 2.1582786.3302274 4.3181338 1.46 6.166h24.847c1.1324931-1.8511158 1.6433723-4.0158697 1.458-6.178-2.6655028-.3547924-5.2752953-1.0459657-7.767-2.057z"/><path d="m19.117 41.935c2.553723-1.0687333 4.6691009-2.9725735 6-5.4.18901-.3087605.5249809-.4970166.887-.4970166s.69799.1882561.887.4970166c1.3297607 2.4264804 3.4432235 4.3301834 5.995 5.4 2.0040371.8284055 4.1009396 1.4113075 6.245 1.736-.5157544-.9877243-1.1652001-1.8996402-1.93-2.71-.589-.641-1.238-1.264-1.865-1.867-.734-.706-1.494-1.436-2.2-2.226-1.3490825-1.5213463-2.464599-3.2347257-3.31-5.084-.5882729-1.2904505-.8657011-2.7008815-.81-4.118-.8542775.8123238-1.5733337 1.7558741-2.13 2.795-.1721902.3307553-.5141079.5382306-.887.5382306s-.7148098-.2074753-.887-.5382306c-.5737052-1.0720114-1.3211731-2.0414895-2.212-2.869.0696393 1.4416264-.2067234 2.8789867-.806 4.192-.8451585 1.8491758-1.9603298 3.5625426-3.309 5.084-.7.791-1.462 1.521-2.2 2.227-.627.6-1.276 1.226-1.864 1.866-.7680261.8144688-1.4198541 1.7311336-1.937 2.724 2.1742287-.3240123 4.3008918-.9116738 6.333-1.75zm6.883-8.935c.5522847 0 1 .4477153 1 1s-.4477153 1-1 1-1-.4477153-1-1 .4477153-1 1-1z"/><path d="m13.539 4c-1.318 2.46-1.8 4.665-1.4 6.555.1362455.5926465.34727 1.1655713.628 1.705 1.9102908.403579 3.7834851.9662063 5.6 1.682 1.266.464 2.576.943 3.877 1.292 3.8178017 1.0100318 7.8317538 1.016921 11.653.02 1.5057606-.4100487 2.9777654-.9352632 4.403-1.571.7118335-.9254678 1.2196371-1.9911737 1.49-3.127.393-1.891-.087-4.1-1.4-6.556z"/>
<path d="m16.592 16.905c.735.706 1.494 1.436 2.2 2.227 1.3486464 1.5216787 2.4641186 3.23499 3.31 5.084.041.091.071.186.109.278 1.4786381.9475518 2.7643197 2.1667268 3.789 3.593 1.0071418-1.3954787 2.2611244-2.5948961 3.7-3.539.045-.11.081-.223.131-.332.8461241-1.8491083 1.9619415-3.5624322 3.311-5.084.694-.782 1.444-1.5 2.17-2.2-.3.092-.608.181-.906.258-2.0529137.540153-4.1672174.811752-6.29.808-2.157058.0028135-4.3052389-.2762147-6.39-.83-1.386-.373-2.738-.867-4.046-1.346-1.092-.4-2.15-.778-3.21-1.094.092.105.165.207.263.313.583.638 1.232 1.259 1.859 1.864z"/><path d="m49 2c.5522847 0 1-.44771525 1-1v-1h-48v1c0 .55228475.44771525 1 1 1z"/><path d="m3 54c-.55228475 0-1 .4477153-1 1v1h48v-1c0-.5522847-.4477153-1-1-1z"/>
<path d="m9 50c-.00538349-1.3926228-.73701862-2.6815137-1.93-3.4 2.92-10.42 2.93-11.87 2.93-12.35.011523-1.8549362-.95319834-3.5792807-2.54-4.54.71985234-1.0263624.71985234-2.3936376 0-3.42 1.58680166-.9607193 2.551523-2.6850638 2.54-4.54 0-.48-.01-1.93-2.93-12.35 1.53622702-.92907922 2.26524649-2.7678897 1.7829814-4.49722543-.4822651-1.72933572-2.05765924-2.9255074-3.8529814-2.9255074s-3.3707163 1.19617168-3.8529814 2.9255074c-.48226509 1.72933573.24675438 3.56814621 1.7829814 4.49722543-2.92 10.42-2.93 11.87-2.93 12.35-.01152304 1.8549362.95319834 3.5792807 2.54 4.54-.72014773 1.0262691-.72014773 2.3937309 0 3.42-1.58680166.9607193-2.55152304 2.6850638-2.54 4.54 0 .48.01 1.93 2.93 12.35-1.64480324 1.0027595-2.33889153 3.0370841-1.65001165 4.8360696s2.56420279 2.8494135 4.45808511 2.4971152 3.26603324-2.0068184 3.26192654-3.9331848zm-4 2c-1.1045695 0-2-.8954305-2-2s.8954305-2 2-2 2 .8954305 2 2c-.0032948 1.1032019-.89679813 1.9967052-2 2zm-1-24c0-.5522847.44771525-1 1-1s1 .4477153 1 1-.44771525 1-1 1-1-.4477153-1-1zm1-20c-1.1045695 0-2-.8954305-2-2s.8954305-2 2-2 2 .8954305 2 2c-.0032948 1.10320187-.89679813 1.9967052-2 2z"/><path d="m52 21.75c0-.48-.01-1.93-2.93-12.34 1.536227-.92907922 2.2652465-2.7678897 1.7829814-4.49722543-.4822651-1.72933572-2.0576592-2.9255074-3.8529814-2.9255074s-3.3707163 1.19617168-3.8529814 2.9255074c-.4822651 1.72933573.2467544 3.56814621 1.7829814 4.49722543-2.92 10.41-2.93 11.86-2.93 12.34-.011523 1.8549362.9531983 3.5792807 2.54 4.54-.7201477 1.0262691-.7201477 2.3937309 0 3.42-1.5868017.9607193-2.551523 2.6850638-2.54 4.54 0 .48.01 1.93 2.93 12.34-1.536227.9290792-2.2652465 2.7678897-1.7829814 4.4972254.4822651 1.7293358 2.0576592 2.9255074 3.8529814 2.9255074s3.3707163-1.1961716 3.8529814-2.9255074c.4822651-1.7293357-.2467544-3.5681462-1.7829814-4.4972254 2.92-10.41 2.93-11.86 2.93-12.34.011523-1.8549362-.9531983-3.5792807-2.54-4.54.7198523-1.0263624.7198523-2.3936376 0-3.42 1.5868017-.9607193 2.551523-2.6850638 2.54-4.54zm-5 30.25c-1.1045695 0-2-.8954305-2-2s.8954305-2 2-2 2 .8954305 2 2c-.0032948 1.1032019-.8967981 1.9967052-2 2zm-1-24c0-.5522847.4477153-1 1-1s1 .4477153 1 1-.4477153 1-1 1-1-.4477153-1-1zm1-20c-1.1045695 0-2-.8954305-2-2s.8954305-2 2-2 2 .8954305 2 2c-.0032948 1.10320187-.8967981 1.9967052-2 2z"/>
</g></g>
</svg>
