<svg width="50px" height="50px" viewBox="-21 -64 681.3311 681" xmlns="http://www.w3.org/2000/svg">
<g fill="#0a141c">
<path d="m574.859375 551.066406c-26.167969.019532-50.429687-13.703125-63.894531-36.140625-13.480469 22.425781-37.730469 36.144531-63.894532 36.144531-26.167968 0-50.417968-13.71875-63.898437-36.144531-13.472656 22.425781-37.726563 36.144531-63.890625 36.144531s-50.417969-13.71875-63.894531-36.144531c-13.480469 22.425781-37.726563 36.144531-63.894531 36.144531-26.167969 0-50.417969-13.71875-63.890626-36.144531-13.191406 21.914063-36.699218 35.539063-62.273437 36.089844-25.570313.558594-49.644531-12.042969-63.761719-33.375-2.996094-4.898437-1.5742185-11.289063 3.222656-14.453125 4.792969-3.160156 11.234376-1.953125 14.550782 2.738281 10.847656 16.339844 29.796875 25.390625 49.320312 23.5625 19.527344-1.824219 36.46875-14.238281 44.089844-32.304687 2.4375-6.046875 8.304688-10.011719 14.820312-10.011719 6.523438 0 12.386719 3.964844 14.820313 10.011719 8.308594 19.75 27.648437 32.589844 49.074219 32.589844 21.429687 0 40.765625-12.839844 49.078125-32.589844 2.433593-6.046875 8.296875-10.011719 14.820312-10.011719 6.515625 0 12.378907 3.964844 14.8125 10.011719 8.3125 19.75 27.65625 32.589844 49.078125 32.589844 21.425782 0 40.765625-12.839844 49.074219-32.589844 2.4375-6.046875 8.304687-10.011719 14.820313-10.011719 6.515624 0 12.382812 3.964844 14.820312 10.011719 8.308594 19.75 27.648438 32.589844 49.074219 32.589844 21.429687 0 40.765625-12.839844 49.078125-32.589844 2.433594-6.046875 8.296875-10.011719 14.8125-10.011719 6.523437 0 12.386718 3.964844 14.820312 10.011719 7.640625 18.0625 24.589844 30.464844 44.117188 32.28125 19.527344 1.8125 38.472656-7.253906 49.308594-23.601563 3.320312-4.691406 9.757812-5.898437 14.550781-2.742187 4.796875 3.164062 6.21875 9.554687 3.222656 14.457031-13.734375 20.910156-37.078125 33.496094-62.09375 33.488281zm0 0"/>
<path d="m427.378906 547.871094c-.601562.007812-1.207031-.046875-1.800781-.148438-2.785156-.472656-5.265625-2.035156-6.898437-4.339844-1.636719-2.304687-2.285157-5.160156-1.8125-7.949218 7.847656-37.769532 22.136718-73.90625 42.246093-106.832032 75.800781-132.640624 10.875-227.644531-39.398437-262.871093l4.746094-9.671875-6.046876 8.765625c-1.527343-1.058594-3.0625-2.089844-4.601562-3.109375-38.09375-24.964844-82.183594-39.257813-127.679688-41.390625-46.335937-1.222657-92.28125 8.707031-133.980468 28.945312-40.1875 18.015625-73.933594 20.308594-103.113282 7.003907 6.878907 7.816406 14.550782 14.894531 22.886719 21.128906 30.882813 24.496094 69.753907 36.121094 119.128907 35.789062h3.910156c24.660156-.242187 52.5625-.53125 75.917968 15.816406 22.617188 14.730469 36.6875 39.511719 37.75 66.484376 0 58.003906-24.589843 82.550781-79.722656 115.613281-16.546875 9.902343-30.992187 22.964843-42.496094 38.445312-15.523437 21.488281-26.65625 45.824219-32.757812 71.625-1.488281 5.691407-7.308594 9.09375-12.996094 7.609375-5.691406-1.488281-9.097656-7.308594-7.609375-12.996094 6.78125-28.464843 19.117188-55.3125 36.300781-78.996093 13.160157-17.695313 29.679688-32.621094 48.601563-43.9375 52.050781-31.238281 69.382813-49.679688 69.382813-97.363281-1.074219-20.03125-11.757813-38.304688-28.6875-49.0625-17.765626-12.425782-40.96875-12.183594-63.496094-11.96875h-3.9375c-54.308594.289062-97.652344-12.777344-132.539063-40.390626-13.738281-9.703124-25.402343-22.050781-34.308593-36.3125-4.699219-6.265624-4.910157-14.816406-.523438-21.296874 5.105469-5.804688 13.335938-7.722657 20.480469-4.785157 4.539062 1.238281 8.945312 2.910157 13.160156 5.007813 23.671875 10.953125 50.988281 8.75 85.917969-6.914063 44.777344-21.550781 94.058594-32.066406 143.726562-30.679687 49.304688 2.328125 97.078125 17.835937 138.355469 44.894531 1.683594 1.070313 3.332031 2.230469 4.984375 3.355469l1.402344.988281c104.023437 72.808594 96.632812 201.824219 45.792968 290.882813-18.875 30.738281-32.320312 64.5-39.742187 99.800781-.875 5.136719-5.332031 8.878906-10.542969 8.859375zm0 0"/>
<path d="m69.679688 550.75c-3.355469 0-6.507813-1.582031-8.523438-4.261719-10.222656-13.859375-19.566406-28.347656-27.984375-43.375-5.300781-9.351562-9.507813-19.28125-12.535156-29.589843-5.214844-17.957032-7.578125-36.625-7.011719-55.3125 1.0625-46.953126 18.386719-84.949219 47.386719-104.234376 3.597656-2.289062 7.335937-4.34375 11.199219-6.144531 6.007812-2.0625 11.238281-5.914062 14.988281-11.042969 2.015625-5.367187 3.097656-11.039062 3.191406-16.773437.234375-2.84375.46875-5.640625.820313-8.316406.726562-5.386719 2.128906-16.164063 10.914062-19.167969 4.722656-1.539062 9.90625-.195312 13.277344 3.453125 13.726562 13.734375 36.667968 61.601563 11.984375 98.628906-21.515625 32.265625-17.605469 46.363281-2.867188 61.105469 8.050781 8.039062 27.390625 14.023438 54.480469 16.847656 5.855469.609375 10.105469 5.84375 9.496094 11.699219-.609375 5.847656-5.847656 10.101563-11.699219 9.492187-32.863281-3.429687-55.515625-11.160156-67.335937-22.980468-30.882813-30.882813-17.238282-61.765625.203124-87.984375 9.15625-16.664063 9.628907-36.738281 1.269532-53.808594-.53125 5.976563-2.097656 11.816406-4.621094 17.261719-5.65625 9.492187-14.371094 16.777344-24.714844 20.660156-3.03125 1.414062-5.976562 3.007812-8.820312 4.773438-32.855469 21.855468-37.453125 68.152343-37.898438 86.996093-.507812 16.476563 1.5625 32.929688 6.140625 48.765625 2.574219 8.75 6.148438 17.171875 10.652344 25.097656 7.984375 14.273438 16.851563 28.03125 26.546875 41.203126 2.417969 3.226562 2.808594 7.542968 1.003906 11.152343-1.804687 3.605469-5.488281 5.882813-9.523437 5.882813zm0 0"/>
<path d="m628.105469 444.578125c-4.550781.003906-8.59375-2.882813-10.078125-7.175781-22.871094-66.300782-67.300782-117.335938-118.957032-136.394532-5.460937-2.078124-8.230468-8.167968-6.207031-13.644531 2.027344-5.480469 8.089844-8.304687 13.585938-6.332031 58.4375 21.5625 106.488281 76.019531 131.714843 149.421875 1.121094 3.257813.605469 6.851563-1.390624 9.652344-2 2.804687-5.226563 4.472656-8.667969 4.472656zm0 0"/>
<path d="m194.484375 360.878906c-5.574219-.136718-10.964844-2.058594-15.367187-5.484375-8.5625-6.804687-15.15625-15.769531-19.089844-25.976562-6.503906-14.523438-6.269532-31.171875.648437-45.503907 8.398438-14.597656 22.007813-25.488281 38.101563-30.476562 26.898437-7.226562 54.613281-10.953125 82.464844-11.085938 5.882812-.128906 10.753906 4.535157 10.886718 10.414063.125 5.882813-4.535156 10.753906-10.417968 10.886719-25.714844.164062-51.3125 3.523437-76.203126 9.996094-10.929687 3.261718-20.230468 10.511718-26.058593 20.308593-3.839844 8.792969-3.714844 18.808594.328125 27.507813 2.445312 6.5625 6.582031 12.359375 11.992187 16.804687.835938.589844 1.761719 1.027344 2.746094 1.296875.242187-.789062.351563-1.613281.332031-2.4375-.097656-2.289062-.351562-4.5625-.757812-6.816406-2.761719-9.734375-1.132813-20.191406 4.460937-28.625 12.109375-14.570312 32.8125-9.527344 45.195313-6.527344l3.195312.757813c11.515625 2.78125 22.800782 6.453125 33.75 10.976562 7.28125 2.894531 13.511719 5.472657 18.675782 7.625 3.515624 1.464844 5.976562 4.695313 6.464843 8.464844.484375 3.773437-1.078125 7.523437-4.101562 9.828125-3.027344 2.3125-7.054688 2.828125-10.5625 1.367188-5.0625-2.132813-11.183594-4.648438-18.359375-7.453126-9.949219-4.121093-20.195313-7.46875-30.65625-10.023437l-3.378906-.800781c-7.550782-1.839844-20.230469-4.90625-23.808594-.539063-1.28125 1.542969-.289063 8.261719.242187 11.875.570313 3.273438.902344 6.585938.992188 9.910157.730469 10.628906-6.132813 20.296874-16.410157 23.109374-1.734374.425782-3.519531.632813-5.304687.621094zm0 0"/>
<path d="m266.570312 505.820312c-10.339843.230469-20.371093-3.515624-28.03125-10.46875-10.113281-10.113281-14.605468-24.558593-12.011718-38.621093 5.601562-31.183594 28.859375-56.242188 59.539062-64.140625 13.832032-3.628906 28.5625-.226563 39.402344 9.105468 19.691406 18.285157 16.023438 53.167969-8.347656 79.425782-12.773438 14.796875-31.039063 23.71875-50.550782 24.699218zm31.007813-93.191406c-2.367187.019532-4.726563.277344-7.039063.777344-10.832031 2.765625-20.59375 8.699219-28.039062 17.039062-7.765625 8.046876-12.957031 18.226563-14.910156 29.242188-1.480469 7.171875.523437 14.621094 5.402344 20.085938 10.648437 9.816406 32.796874 3.8125 48.496093-13.097657 15.695313-16.910156 20.039063-39.519531 9.464844-49.339843-3.699219-3.210938-8.480469-4.894532-13.375-4.707032zm0 0"/>
<path d="m351.515625 371.101562c-1.863281 0-3.722656-.191406-5.546875-.566406-11.445312-2.972656-20.488281-11.734375-23.824219-23.078125-4.03125-12.089843-4.6875-25.046875-1.90625-37.484375 2.367188-12.511718 8.089844-24.148437 16.5625-33.652344 7.15625-9.636718 19.253907-14.253906 31.015625-11.835937 11.765625 2.421875 21.054688 11.441406 23.824219 23.125 4.03125 12.089844 4.6875 25.046875 1.90625 37.488281-5.578125 27.070313-23.394531 46.003906-42.03125 46.003906zm-10.417969-56.835937c-1.953125 8.574219-1.589844 17.519531 1.070313 25.910156 1.957031 5.386719 4.917969 8.835938 8.109375 9.496094 7.289062 1.554687 18.679687-10.789063 22.367187-28.898437 1.957031-8.578126 1.589844-17.523438-1.0625-25.910157-1.953125-5.390625-4.914062-8.84375-8.117187-9.5-4.417969-.117187-8.605469 1.945313-11.203125 5.519531-5.757813 6.667969-9.621094 14.753907-11.203125 23.425782zm0 0"/>
<path d="m538.222656 227.644531c-2.257812 0-4.503906-.304687-6.671875-.914062-10-3.316407-17.515625-11.648438-19.796875-21.925781-2.753906-10.675782-2.542968-21.902344.605469-32.472657 7.144531-25.480469 26.761719-41.527343 44.726563-36.5 9.996093 3.3125 17.511718 11.640625 19.792968 21.925781 2.75 10.675782 2.535156 21.902344-.617187 32.464844-6.3125 22.347656-22.171875 37.421875-38.039063 37.421875zm12.046875-71.441406c-4.847656 0-13.492187 7.921875-17.402343 21.882813-2.0625 6.769531-2.28125 13.972656-.640626 20.863281 1.070313 3.929687 3.074219 6.707031 5.070313 7.273437 4.558594 1.328125 14.195313-6.753906 18.402344-21.746094 2.074219-6.773437 2.296875-13.976562.648437-20.863281-1.125-3.929687-3.066406-6.71875-5.0625-7.273437-.332031-.09375-.675781-.144532-1.015625-.136719zm0 0"/>
<path d="m309.675781 238.136719h-.46875c-8.792969-.308594-17.292969-3.238281-24.40625-8.414063-17.039062-12.027344-23.121093-31.796875-13.84375-45.003906 9.277344-13.207031 29.953125-14.160156 47.027344-2.128906 17.070313 12.035156 23.105469 31.796875 13.789063 45.011718-5.191407 6.921876-13.449219 10.863282-22.097657 10.535157zm-12.609375-25.828125c3.609375 2.691406 7.929688 4.265625 12.429688 4.53125 1.773437.175781 3.546875-.371094 4.917968-1.515625 1.519532-2.132813-.59375-9.640625-8.667968-15.324219-8.070313-5.6875-15.8125-5.175781-17.339844-3.011719-1.519531 2.160157.601562 9.636719 8.660156 15.320313zm0 0"/>
<path d="m473.492188 487.171875c-4.003907.011719-7.964844-.8125-11.632813-2.417969-9.273437-4.316406-15.835937-12.921875-17.546875-23.011718-.78125-3.726563.488281-7.582032 3.324219-10.117188 2.835937-2.535156 6.808593-3.367188 10.425781-2.179688 3.617188 1.191407 6.324219 4.21875 7.097656 7.941407.449219 3.253906 2.347656 6.125 5.160156 7.816406 5.671876 2.496094 15.394532-2.78125 20.472657-14.226563 5.078125-11.445312 2.453125-22.257812-3.085938-24.695312-2.144531-.886719-4.566406-.828125-6.667969.160156-5.527343 2-11.636718-.859375-13.636718-6.394531-1.996094-5.53125.863281-11.636719 6.398437-13.632813 7.261719-2.828124 15.347657-2.6875 22.511719.386719 17.484375 7.714844 23.605469 30.886719 13.960938 52.800781-5.851563 15.566407-20.203126 26.324219-36.78125 27.570313zm0 0"/>
<path d="m116.949219 519.121094c-17.640625 0-31.945313-14.300782-31.945313-31.949219 0-17.640625 14.304688-31.945313 31.945313-31.945313 17.644531 0 31.949219 14.304688 31.949219 31.945313.0625 8.089844-3.046876 15.871094-8.660157 21.691406-2.890625 2.976563-7.238281 4-11.148437 2.632813-1.101563 3.863281-4.34375 6.742187-8.304688 7.375-1.273437.1875-2.554687.269531-3.835937.25zm1.714843-21.4375c1.277344 0 2.550782.226562 3.75.671875.480469-1.632813 1.359376-3.121094 2.554688-4.332031 1.75-1.84375 2.695312-4.3125 2.632812-6.851563 0-5.878906-4.769531-10.644531-10.652343-10.644531-5.878907 0-10.648438 4.765625-10.648438 10.644531 0 5.882813 4.769531 10.652344 10.648438 10.652344.566406-.09375 1.140625-.140625 1.714843-.140625zm0 0"/>
<path d="m447.070312 401.980469c-3.578124 0-6.921874-1.792969-8.890624-4.78125-1.972657-2.984375-2.316407-6.761719-.90625-10.050781.304687-.703126 29.933593-71.203126 10.554687-119.640626-1.421875-3.535156-.839844-7.558593 1.507813-10.546874 2.355468-2.992188 6.125-4.503907 9.894531-3.960938 3.761719.539062 6.953125 3.050781 8.367187 6.582031 22.671875 56.695313-9.367187 132.738281-10.742187 135.945313-1.679688 3.914062-5.527344 6.453125-9.785157 6.453125zm0 0"/>
<path d="m436.417969 242.246094c-4.566407 0-8.632813-2.910156-10.09375-7.242188-6.347657-16.496094-19.382813-29.539062-35.875-35.898437-3.617188-1.207031-6.3125-4.246094-7.078125-7.976563-.765625-3.734375.523437-7.589844 3.371094-10.113281 2.851562-2.53125 6.832031-3.34375 10.445312-2.140625 22.878906 8.421875 40.910156 26.460938 49.328125 49.335938 1.089844 3.246093.550781 6.820312-1.453125 9.605468-2 2.78125-5.214844 4.429688-8.644531 4.429688zm0 0"/>
<path d="m495.628906 262.375c-4.285156-.007812-8.15625-2.574219-9.820312-6.527344-1.65625-3.953125-.78125-8.515625 2.214844-11.578125 10.21875-13.097656 19.050781-27.222656 26.347656-42.136719 2.574218-5.296874 8.949218-7.5 14.246094-4.929687 5.292968 2.574219 7.496093 8.949219 4.921874 14.242187-7.851562 16.074219-17.339843 31.292969-28.300781 45.421876-.640625.839843-1.332031 1.640624-2.070312 2.394531-2.003907 1.996093-4.710938 3.117187-7.539063 3.113281zm0 0"/>
<path d="m570.425781 346.945312c-3.9375-.015624-7.539062-2.226562-9.335937-5.738281-1.792969-3.507812-1.476563-7.726562.820312-10.929687.125-.167969.746094-.910156.871094-1.0625 10.941406-14.039063 20.082031-29.386719 27.222656-45.695313 22.886719-48.34375 31.597656-102.1875 25.128906-155.285156-3.34375-23.050781-19.265624-99.035156-83.914062-108.871094-5.71875-1.5-11.753906-1.28125-17.347656.625 1.949218 2.542969 4.238281 4.804688 6.804687 6.722657 1.695313 1.402343 3.3125 2.777343 4.671875 4.109374 6.34375 5.878907 11.683594 12.753907 15.796875 20.359376 6.902344 14.777343 11.226563 30.625 12.777344 46.855468 2.046875 16.957032 1.789063 34.105469-.777344 50.984375-.949219 5.738281-6.320312 9.652344-12.074219 8.800781-5.746093-.859374-9.75-6.167968-8.988281-11.929687 2.277344-14.984375 2.515625-30.207031.710938-45.257813-1.285157-13.777343-4.890625-27.25-10.644531-39.835937-3.085938-5.527344-7.046876-10.519531-11.714844-14.785156-.980469-.964844-2.183594-1.933594-3.421875-2.96875-7.074219-4.683594-12.042969-11.941407-13.839844-20.234375-1.054687-6.621094 1.121094-13.351563 5.855469-18.097656 6.964844-6.796876 18.867187-8.972657 35.410156-6.390626 53.382812 8.101563 91.4375 55.53125 101.769531 126.867188 7.054688 57.148438-2.253906 115.125-26.835937 167.195312-7.789063 17.773438-17.765625 34.511719-29.6875 49.824219l-.703125.851563c-2.148438 2.476562-5.273438 3.898437-8.554688 3.886718zm0 0"/>
</g>
</svg>
