<svg width="50px" height="50px" viewBox="-21 -21 682 682.66787" xmlns="http://www.w3.org/2000/svg">
<g fill="#0a141c">
<path d="m400.382812 456.425781c-1.855468.003907-3.675781-.484375-5.277343-1.40625-.761719-.414062-79.449219-43.644531-222.507813-21.652343-4.679687.714843-9.28125-1.746094-11.28125-6.035157-2.003906-4.296875-.929687-9.398437 2.632813-12.523437 25.308593-22.160156 38.832031-46.75 40.199219-73.070313-.113282-28.859375-10.609376-56.707031-29.578126-78.457031-2.890624-3.105469-3.660156-7.636719-1.964843-11.523438 1.695312-3.890624 5.539062-6.402343 9.78125-6.402343h206.488281c3.476562 0 6.738281 1.691406 8.734375 4.542969 5.039063 7.539062 9.523437 15.433593 13.425781 23.625 13.558594 27.636718 33.636719 82.660156 15.648438 140.421874-4.125 13.171876-9.921875 25.757813-17.246094 37.457032-1.949219 3.125-5.375 5.023437-9.054688 5.023437zm-147.855468-50.726562c49.160156-1.261719 98.050781 7.628906 143.621094 26.109375 4.144531-7.730469 7.546874-15.839844 10.164062-24.210938 15.796875-50.703125-2.265625-99.890625-14.429688-124.6875-3.46875-7.113281-6.65625-12.660156-8.832031-16.226562h-179.480469c14.917969 22.546875 22.554688 49.132812 21.875 76.15625-1.476562 24.058594-10.550781 47.03125-25.914062 65.601562 17.605469-1.804687 35.292969-2.722656 52.996094-2.742187zm0 0"/>
<path d="m288.300781 85.371094c-.332031 0-.675781 0-1.015625 0l-86.441406-8.285156c-10.546875-.601563-18.878906-9.160157-19.203125-19.710938v-29.332031c.316406-10.53125 8.617187-19.078125 19.132813-19.707031l86.511718-8.289063c3-.285156 5.980469.710937 8.207032 2.742187 2.226562 2.035157 3.484374 4.910157 3.46875 7.921876v63.996093c0 5.890625-4.773438 10.664063-10.660157 10.664063zm-85.328125-29.585938 74.660156 7.191406v-40.53125l-74.660156 7.113282zm0 0"/>
<path d="m147.621094 612.460938h-.109375c-2.28125-.011719-4.503907-.761719-6.335938-2.132813-45.824219-31.925781-67.714843-88.453125-55.355469-142.917969.929688-5.066406 5.347657-8.75 10.496094-8.746094h124.679688c4.972656-.011718 9.871094 1.164063 14.296875 3.433594 18.925781 8.640625 34.273437 23.589844 43.40625 42.289063 1.445312 4.367187 5.429687 7.386719 10.023437 7.601562h109.003906c3.507813.007813 6.78125-1.78125 8.679688-4.730469l22.058594-33.925781c5.882812-9.128906 15.992187-14.652343 26.851562-14.667969h99.617188c5.792968-.003906 10.527344 4.621094 10.667968 10.410157.085938 3.582031 1.332032 88.664062-71.03125 138.914062-3.125 2.324219-7.269531 2.765625-10.808593 1.144531-3.539063-1.621093-5.914063-5.042968-6.195313-8.925781-.285156-3.886719 1.574219-7.609375 4.84375-9.730469 35.484375-26.199218 57.847656-66.511718 61.304688-110.480468h-88.398438c-3.59375-.003906-6.945312 1.816406-8.890625 4.84375l-22.058593 33.925781c-5.78125 9.117187-15.847657 14.617187-26.640626 14.558594h-109.003906c-13.375-.199219-25.246094-8.617188-29.863281-21.171875-7.332031-13.71875-19.007813-24.628906-33.191406-31.027344-1.445313-.742188-3.046875-1.128906-4.671875-1.128906h-115.539063c-7.265625 43.769531 11.445313 87.792968 48 112.945312 3.878907 2.609375 5.609375 7.441406 4.265625 11.917969s-5.449218 7.558594-10.125 7.601563zm0 0"/>
<path d="m117.648438 437.335938h-63.992188c-5.890625 0-10.667969-4.777344-10.667969-10.667969-.277343-57.519531 24.605469-112.277344 68.125-149.890625 3.214844-2.496094 7.570313-2.945313 11.226563-1.152344 3.65625 1.789062 5.976562 5.507812 5.976562 9.578125v141.464844c0 2.832031-1.121094 5.539062-3.125 7.542969-2 2-4.710937 3.125-7.542968 3.125zm-53.015626-21.332032h42.351563v-104.929687c-25.0625 29.492187-39.921875 66.300781-42.351563 104.929687zm0 0"/>
<path d="m573.652344 437.335938h-114.707032c-3.496093 0-6.777343-1.714844-8.769531-4.589844-1.996093-2.875-2.449219-6.542969-1.226562-9.824219 19.671875-48.535156 19.835937-102.789063.460937-151.449219-1.660156-3.304687-1.488281-7.238281.453125-10.386718 1.941407-3.148438 5.378907-5.070313 9.082031-5.0625h68.824219c3.148438 0 6.132813 1.386718 8.160157 3.792968 37.167968 47.742188 54.46875 107.984375 48.304687 168.171875-.667969 5.339844-5.207031 9.339844-10.582031 9.347657zm-99.773438-21.332032h90.121094c2.414062-49.597656-12.222656-98.523437-41.46875-138.652344h-47.929688c14.203126 45.167969 13.949219 93.636719-.722656 138.652344zm0 0"/>
<path d="m377.441406 224.023438h-183.53125c-4.792968-.003907-9-3.203126-10.277344-7.828126-1.273437-4.621093.6875-9.523437 4.804688-11.988281 1.558594-.957031 39.460938-25.023437 29.363281-85.078125-.519531-3.09375.351563-6.253906 2.375-8.652344 2.027344-2.394531 5.003907-3.773437 8.140625-3.773437h114.707032c1.929687 0 3.824218.519531 5.480468 1.511719 2.132813 1.269531 51.984375 32 39.460938 106.902344-.859375 5.140624-5.3125 8.910156-10.523438 8.90625zm-157.085937-21.332032h147.730469c4.425781-28.15625-6.363282-56.550781-28.371094-74.660156h-99.316406c3.039062 26.53125-4.125 53.222656-20.042969 74.660156zm0 0"/>
<path d="m288.300781 529.914062c-5.894531 0-10.667969-4.78125-10.667969-10.667968v-101.109375c0-5.890625 4.773438-10.667969 10.667969-10.667969 5.886719 0 10.660157 4.777344 10.660157 10.667969v101.109375c0 5.886718-4.773438 10.667968-10.660157 10.667968zm0 0"/>
<path d="m288.300781 128.03125c-5.894531 0-10.667969-4.773438-10.667969-10.660156v-42.664063c0-5.890625 4.773438-10.667969 10.667969-10.667969 5.886719 0 10.660157 4.777344 10.660157 10.667969v42.664063c0 5.886718-4.773438 10.660156-10.660157 10.660156zm0 0"/>
<path d="m288.300781 266.683594c-5.894531 0-10.667969-4.773438-10.667969-10.660156v-42.664063c0-5.890625 4.773438-10.667969 10.667969-10.667969 5.886719 0 10.660157 4.777344 10.660157 10.667969v42.664063c0 5.886718-4.773438 10.660156-10.660157 10.660156zm0 0"/>
<path d="m495.570312 479.996094c-5.890624 0-10.667968-4.773438-10.667968-10.667969v-42.660156c0-5.890625 4.777344-10.664063 10.667968-10.664063 5.890626 0 10.664063 4.773438 10.664063 10.664063v42.660156c0 5.894531-4.773437 10.667969-10.664063 10.667969zm0 0"/>
<path d="m495.570312 277.351562c-5.890624 0-10.667968-4.773437-10.667968-10.667968v-31.992188c0-5.894531 4.777344-10.667968 10.667968-10.667968 5.890626 0 10.664063 4.773437 10.664063 10.667968v31.992188c0 5.894531-4.773437 10.667968-10.664063 10.667968zm0 0"/>
<path d="m117.648438 479.996094c-5.886719 0-10.664063-4.773438-10.664063-10.667969v-202.644531c0-5.886719 4.777344-10.660156 10.664063-10.660156 5.894531 0 10.667968 4.773437 10.667968 10.660156v202.644531c0 5.894531-4.773437 10.667969-10.667968 10.667969zm0 0"/>
<path d="m202.972656 575.988281c-17.671875 0-31.996094-14.324219-31.996094-32 0-17.667969 14.324219-32 31.996094-32s31.996094 14.332031 31.996094 32c0 17.675781-14.324219 32-31.996094 32zm0-42.664062c-5.890625 0-10.664062 4.777343-10.664062 10.664062 0 5.894531 4.773437 10.667969 10.664062 10.667969s10.667969-4.773438 10.667969-10.667969c0-5.886719-4.777344-10.664062-10.667969-10.664062zm0 0"/>
<path d="m608.265625 479.996094h-85.328125c-5.890625 0-10.664062-4.773438-10.664062-10.667969 0-5.886719 4.773437-10.664063 10.664062-10.664063h85.328125c5.886719 0 10.660156 4.777344 10.660156 10.664063 0 5.894531-4.773437 10.667969-10.660156 10.667969zm0 0"/>
<path d="m629.59375 639.980469c-2.484375 0-4.890625-.859375-6.804688-2.441407l-31.144531-25.78125c-7.890625-6.53125-19.304687-6.53125-27.195312 0l-10.75 8.898438c-15.789063 13.027344-38.605469 13.027344-54.398438 0l-10.75-8.898438c-7.890625-6.53125-19.304687-6.53125-27.195312 0l-10.75 8.898438c-15.789063 13.027344-38.605469 13.027344-54.394531 0l-10.75-8.898438c-7.890626-6.53125-19.308594-6.53125-27.199219 0l-10.75 8.898438c-15.789063 13.027344-38.605469 13.027344-54.394531 0l-10.75-8.898438c-7.890626-6.53125-19.304688-6.53125-27.195313 0l-10.75 8.898438c-15.792969 13.027344-38.609375 13.027344-54.398437 0l-10.75-8.898438c-7.890626-6.53125-19.304688-6.53125-27.195313 0l-10.75 8.898438c-15.789063 13.027344-38.605469 13.027344-54.394531 0l-10.75-8.898438c-7.890625-6.53125-19.308594-6.53125-27.199219 0l-31.144531 25.78125c-4.539063 3.769532-11.277344 3.144532-15.046875-1.402343-3.769531-4.539063-3.144531-11.277344 1.398437-15.046875l31.152344-25.777344c15.789062-13.027344 38.605469-13.027344 54.394531 0l10.75 8.894531c7.890625 6.527344 19.308594 6.527344 27.199219 0l10.75-8.894531c15.789062-13.03125 38.605469-13.03125 54.394531 0l10.75 8.894531c7.890625 6.527344 19.304688 6.527344 27.195313 0l10.75-8.894531c15.792968-13.03125 38.609375-13.03125 54.398437 0l10.75 8.894531c7.890625 6.527344 19.304688 6.527344 27.195313 0l10.75-8.894531c15.789062-13.03125 38.605468-13.03125 54.394531 0l10.75 8.894531c7.890625 6.527344 19.308594 6.527344 27.199219 0l10.75-8.894531c15.789062-13.03125 38.605468-13.03125 54.394531 0l10.75 8.894531c7.890625 6.527344 19.304687 6.527344 27.199219 0l10.75-8.894531c15.789062-13.03125 38.605468-13.03125 54.394531 0l31.152344 25.777344c3.460937 2.859375 4.761719 7.585937 3.246093 11.820312-1.511718 4.226563-5.515624 7.054688-10.007812 7.070313zm0 0"/>
</g>
</svg>
