<?xml version="1.0" encoding="UTF-8"?>
<svg style="height:512px;width:512px" version="1.1" viewBox="0 0 512 512" xmlns="http://www.w3.org/2000/svg" xmlns:cc="http://creativecommons.org/ns#" xmlns:dc="http://purl.org/dc/elements/1.1/" xmlns:rdf="http://www.w3.org/1999/02/22-rdf-syntax-ns#">
<g class="" transform="translate(0)" style="touch-action:none">
<path d="m319.61 20.654c13.145 33.114 13.144 33.115-5.46 63.5 33.114-13.145 33.116-13.146 63.5 5.457-13.145-33.114-13.146-33.113 5.457-63.498-33.114 13.146-33.113 13.145-63.498-5.459zm-206.59 17.367c-11.808 21.04-11.808 21.04-35.724 24.217 21.04 11.809 21.04 11.808 24.217 35.725 11.808-21.04 11.808-21.04 35.724-24.217-21.04-11.808-21.04-11.808-24.217-35.725zm76.55 56.184c-0.952 50.588-0.95 50.588-41.991 80.18 50.587 0.95 50.588 0.95 80.18 41.99 0.95-50.588 0.95-50.588 41.99-80.18-50.588-0.95-50.588-0.95-80.18-41.99zm191.18 55.885c-0.046 24.127-0.048 24.125-19.377 38.564 24.127 0.047 24.127 0.046 38.566 19.375 0.047-24.126 0.046-24.125 19.375-38.564-24.126-0.047-24.125-0.046-38.564-19.375zm-184.09 83.88c-1.191 0.024-2.36 0.07-3.492 0.134-18.591 1.064-41.868 8.416-77.445 22.556l-39.716 176.92c78.487-20.734 132.97-21.909 170.99-4.615v-181.26c-18.076-8.813-31.79-13.399-46.707-13.737-1.2095-0.0248-2.4194-0.0254-3.629-2e-3zm122.69 11.42c-2.916-0.026-5.81 0.011-8.514 0.098-12.81 0.417-27.638 2.215-45.84 4.522v177.14c43.565-7.825 106.85-4.2 171.24 7.566l-39.78-177.2c-35.904-8.37-56.589-11.91-77.11-12.123zm97.687 21.608 39.742 177.03 2.239 9.973 22.591-0.152-40.855-186.85zm-371.73 112-17.985 77.928 25.035-0.17 42.611-189.75-23.744-3e-3zm136.56 55.898c-30.112 0.09-67.916 6.25-115.41 19.76l-7.22 2.053 187.76-1.27v-6.347c-16.236-9.206-37.42-14.278-65.13-14.196zm134.41 6.174c-19.63 0.067-37.112 1.439-51.283 4.182v10.064l177.59-1.203c-44.322-8.634-89.137-13.17-126.31-13.043zm-290.28 33.93v18h460v-18z" fill="#dbcda5"/>
</g>
</svg>
