<?xml version="1.0" encoding="UTF-8"?>
<svg width="22px" height="22px" enable-background="new 0 0 612 612" version="1.1" viewBox="0 0 612 612" xml:space="preserve" xmlns="http://www.w3.org/2000/svg" xmlns:cc="http://creativecommons.org/ns#" xmlns:dc="http://purl.org/dc/elements/1.1/" xmlns:rdf="http://www.w3.org/1999/02/22-rdf-syntax-ns#">
<path d="m189.45 351.61 42.016-23.823-7.402-26.786c-63.74-6.041-113.6-59.725-113.57-125.05 0.036-69.541 56.021-125.5 125.56-125.5 23.216 0 44.958 6.301 63.614 17.287-27.362-59.185-88.805-67.333-123.14-67.733-96.673 0.459-175.27 79.551-175.16 176.23 0.118 97.107 78.875 175.79 176.01 175.79 4.054 0 8.073-0.143 12.059-0.413z" fill="#dbcda5"/>
<g transform="matrix(1.8217 0 0 1.8217 170.38 173.81)" fill="#dbcda5"><path d="m116.22 186.45c-37.215 0-67.383-30.169-67.383-67.384 0-37.215 30.168-67.384 67.383-67.384 37.216 0 67.386 30.169 67.386 67.384 0 37.215-30.169 67.384-67.386 67.384zm81.188-48.048 34.829-19.336-34.829-19.336zm-162.38-38.672-34.829 19.336 34.829 19.336zm81.188 135.35 19.336-34.829h-38.672zm0-232.03-19.336 34.829h38.672zm-71.079 159.75-10.957 38.3 38.301-10.954zm114.82-114.82 27.344 27.346 10.956-38.298zm-125.77-10.953 10.956 38.299 27.344-27.346zm125.77 153.12 38.3 10.954-10.956-38.3z" stroke-width=".96681"/></g></svg>
