<?xml version="1.0" encoding="UTF-8"?>
<svg width="24px" height="24px" enable-background="new 0 0 240 240" version="1.1" viewBox="0 0 240 240" xml:space="preserve" xmlns="http://www.w3.org/2000/svg">
<g fill="#dbcda5">
<path d="m120 189.7c-38.492 0-69.696-31.205-69.696-69.697s31.204-69.697 69.696-69.697c38.494 0 69.699 31.205 69.699 69.697s-31.205 69.697-69.699 69.697zm83.975-49.697 36.025-20-36.025-20v40zm-167.95-40-36.025 20 36.025 20v-40zm83.975 140 20-36.025h-40l20 36.025zm0-240-20 36.025h40l-20-36.025zm-73.519 165.24-11.333 39.615 39.616-11.33-28.283-28.285zm118.76-118.76 28.283 28.285 11.332-39.613-39.615 11.328zm-130.09-11.329 11.332 39.614 28.283-28.285-39.615-11.329zm130.09 158.38 39.615 11.33-11.332-39.615-28.283 28.285z"/>
</g>
</svg>
