<svg enable-background="new 0 0 512.083 512.083" viewBox="0 0 512.083 512.083" width="24" height="24" xmlns="http://www.w3.org/2000/svg">
<g fill="#dbcda5">
<path d="m99.965 315.002 26.102 26.102-53.463 53.463 44.91 44.91 53.463-53.463 26.102 26.102c6.187 6.187 16.218 6.187 22.405 0l23.92-23.92c6.187-6.187 6.187-16.218 0-22.405l-97.115-97.115c-6.187-6.187-16.218-6.187-22.405 0l-23.92 23.92c-6.186 6.188-6.186 16.22.001 22.406z"/>
<path d="m93.669 457.871-39.457-39.457c-12.402-12.402-32.508-12.401-44.91 0-12.402 12.402-12.402 32.509 0 44.91l39.457 39.457c12.402 12.402 32.509 12.401 44.91 0 12.401-12.401 12.401-32.508 0-44.91z"/>
<path d="m510.815 21.985c5.453-13.053-7.664-26.17-20.717-20.717-45.344 18.941-123.401 54.738-158.489 89.826l-160.461 160.46 89.381 89.381 160.461-160.461c35.088-35.088 70.884-113.145 89.825-158.489zm-237.917 238.413c-5.858 5.858-15.355 5.858-21.213 0s-5.858-15.355 0-21.213l158.456-158.457c5.858-5.858 15.355-5.858 21.213 0s5.858 15.355 0 21.213z"/>
</g>
</svg>
